<svg xmlns="http://www.w3.org/2000/svg" width="26.057" height="32" viewBox="0 0 26.057 32"><path d="M24.734,17a7.243,7.243,0,0,1,3.454-6.093,7.474,7.474,0,0,0-5.851-3.171c-2.492-.252-4.862,1.467-6.127,1.467S13,7.776,10.93,7.814a7.827,7.827,0,0,0-6.619,4.012c-2.822,4.9-.723,12.151,2.028,16.123C7.683,29.893,9.286,32.076,11.39,32c2.026-.081,2.793-1.311,5.242-1.311S19.77,32,21.915,31.958c2.18-.041,3.562-1.981,4.9-3.931a17.628,17.628,0,0,0,2.216-4.551A7.067,7.067,0,0,1,24.734,17ZM20.7,5.11A7.05,7.05,0,0,0,22.37,0a7.179,7.179,0,0,0-4.713,2.423,6.706,6.706,0,0,0-1.7,4.951A5.937,5.937,0,0,0,20.7,5.11Z" transform="translate(-2.971)" fill="#ffffff"/></svg>