<svg xmlns="http://www.w3.org/2000/svg" width="27.521" height="28.8" viewBox="0 0 27.521 28.8"><path d="M28.994,5.234c-.472-.41-3.05-2.77-3.531-3.186A2.706,2.706,0,0,0,23.7,1.6H8.3a2.711,2.711,0,0,0-1.763.448c-.482.416-3.059,2.778-3.531,3.186a2.037,2.037,0,0,0-.742,1.907C2.392,8.023,5.29,29,5.365,29.5a1.071,1.071,0,0,0,1.037.9H25.6a1.072,1.072,0,0,0,1.037-.9c.075-.5,2.973-21.475,3.1-22.357A2.041,2.041,0,0,0,29,5.233ZM16,19.157c-5.2,0-6.309-7.354-6.539-8.869H12.4c.442,2.21,1.446,5.99,3.6,5.99s3.16-3.781,3.6-5.99h2.941C22.309,11.8,21.2,19.157,16,19.157ZM5.072,6.41,8,3.2H24l2.928,3.21H5.072Z" transform="translate(-2.242 -1.6)" fill="#ffffff"/></svg>